<svg width="42" height="25" viewBox="0 0 42 25" fill="none" xmlns="http://www.w3.org/2000/svg">
    <rect width="42" height="25" fill="#EE1C25"/>
    <path fill-rule="evenodd" clip-rule="evenodd" d="M13.5758 11.0621L12.644 11.2742L13.2219 10.6109L12.6992 9.91445L13.6116 10.182L14.2204 9.53941L14.2064 10.3681L15.1053 10.6674L14.1843 10.912L14.1311 11.7396L13.5758 11.0621Z" fill="#FFFF00"/>
    <path fill-rule="evenodd" clip-rule="evenodd" d="M16.4231 8.79615L15.6318 9.26955L15.911 8.47625L15.1428 7.97553L16.1066 7.95864L16.4231 7.17578L16.7396 7.95864L17.7033 7.97553L16.9352 8.47625L17.2143 9.26955L16.4231 8.79615Z" fill="#FFFF00"/>
    <path fill-rule="evenodd" clip-rule="evenodd" d="M16.7229 5.19165L16.224 5.90083L16.1037 5.0785L15.1651 4.8897L16.0375 4.53723L15.9563 3.71137L16.6158 4.31587L17.5043 3.99426L17.0394 4.72032L17.6697 5.34742L16.7229 5.19165Z" fill="#FFFF00"/>
    <path fill-rule="evenodd" clip-rule="evenodd" d="M13.5584 2.86173L12.6185 3.04582L13.2229 2.40019L12.7289 1.68852L13.6298 1.98327L14.2644 1.35935L14.2167 2.18715L15.103 2.51322L14.1726 2.73007L14.0858 3.55551L13.5584 2.86173Z" fill="#FFFF00"/>
    <path fill-rule="evenodd" clip-rule="evenodd" d="M6.86537 7.29178L4.49162 8.71197L5.32904 6.33208L3.02456 4.82991L5.91587 4.77925L6.86537 2.43066L7.81487 4.77925L10.7062 4.82991L8.40169 6.33208L9.23911 8.71197L6.86537 7.29178Z" fill="#FFFF00"/>
</svg>
