<svg width="42" height="25" viewBox="0 0 42 25" fill="none" xmlns="http://www.w3.org/2000/svg">
    <rect width="42" height="25" fill="#E30A17"/>
    <path fill-rule="evenodd" clip-rule="evenodd" d="M24.2595 13.529L22.7453 15.2462L22.6943 13.0917L20.3269 12.3842L22.6943 11.6767L22.7453 9.52224L24.2595 11.2394L26.6584 10.6154L25.2269 12.3842L26.6584 14.153L24.2595 13.529Z" fill="white"/>
    <path fill-rule="evenodd" clip-rule="evenodd" d="M13.5193 6.25C10.0675 6.25 7.26929 9.04822 7.26929 12.5C7.26929 15.9518 10.0675 18.75 13.5193 18.75H15.5577C17.5831 18.75 19.3834 17.7866 20.5255 16.2932C19.6929 16.9614 18.6357 17.3611 17.4851 17.3611H15.8996C13.2149 17.3611 11.0385 15.1847 11.0385 12.5C11.0385 9.81528 13.2149 7.63889 15.8996 7.63889H17.4851C18.6357 7.63889 19.6929 8.03864 20.5255 8.70683C19.3834 7.21335 17.5831 6.25 15.5577 6.25H13.5193Z" fill="white"/>
</svg>
