<svg width="182" height="64" viewBox="0 0 182 64" fill="none" xmlns="http://www.w3.org/2000/svg">
    <g opacity="0.41" clip-path="url(#clip0_149_888)">
        <path d="M46.2193 42.3432C46.1774 48.1011 43.8072 53.6093 39.6257 57.6664C35.4442 61.7234 29.7906 64.0001 23.8981 64H8.8587e-06C-0.00222315 61.9692 0.417343 59.9591 1.2333 58.0913C2.04926 56.2236 3.24464 54.5371 4.74706 53.134C6.24948 51.7308 8.02769 50.6403 9.97401 49.9283C11.9203 49.2163 13.9943 48.8977 16.0703 48.9918C16.5003 48.9918 16.8484 49.0418 17.0942 49.0718V54.9801L31.5057 43.2937L17.1095 32.0175V37.0202C15.0617 36.9652 6.73734 37.0202 8.8587e-06 41.0224V0H17.9184V20.3761H23.4987C35.8676 20.3761 46.3063 30.2615 46.2193 42.3432Z" fill="white"/>
        <path d="M71.7403 14.5679C72.4503 14.9111 73.0423 15.4495 73.4434 16.1169C73.8445 16.7844 74.0373 17.5518 73.9981 18.3249C73.9981 21.5317 71.9861 24.1331 68.1413 24.1331H59.3203V5.73805H67.358C68.1232 5.7281 68.8829 5.86689 69.5927 6.14634C70.3026 6.42579 70.9485 6.84033 71.493 7.36586C72.0375 7.89139 72.4696 8.51744 72.7643 9.20761C73.059 9.89777 73.2104 10.6383 73.2097 11.3861C73.2006 11.9865 73.0655 12.5787 72.8128 13.1259C72.56 13.6732 72.195 14.164 71.7403 14.5679ZM61.578 7.70913V22.187H68.0901C70.1379 22.187 71.7711 20.296 71.7711 18.3249C71.7825 17.4669 71.4627 16.6362 70.8754 15.9983C70.2881 15.3605 69.4764 14.9622 68.6021 14.883V14.778C69.9741 14.4628 70.9929 12.7519 70.9929 11.3861C71.0012 10.4266 70.6221 9.50248 69.9379 8.81418C69.2536 8.12588 68.3193 7.72884 67.3375 7.70913H61.578ZM61.8443 7.94425V14.803H67.3324C67.7857 14.7998 68.2337 14.7085 68.6505 14.5343C69.0672 14.3602 69.4443 14.1067 69.7598 13.7886C70.0752 13.4706 70.3228 13.0944 70.4879 12.6819C70.653 12.2694 70.7324 11.8289 70.7215 11.3861C70.73 10.4931 70.3798 9.63252 69.7461 8.98901C69.1125 8.3455 68.2459 7.9704 67.3324 7.94425H61.8443ZM61.8443 15.0381V21.9219H68.0901C69.9434 21.9219 71.5048 20.191 71.5048 18.3249C71.5028 17.8896 71.4128 17.459 71.2398 17.0579C71.0669 16.6567 70.8145 16.2929 70.4971 15.9875C70.1797 15.682 69.8037 15.4409 69.3906 15.2779C68.9775 15.115 68.5355 15.0335 68.0901 15.0381H61.8443ZM66.9638 9.94535C68.899 9.94535 68.899 12.8619 66.9638 12.8619H63.9945V9.94535H66.9638ZM67.7932 19.9508H63.9945V16.9492H67.8136C69.7232 16.9342 69.754 19.9558 67.8136 19.9558L67.7932 19.9508Z" fill="white"/>
        <path d="M93.652 23.4477V24.1331H88.2765L85.0512 18.7201H82.5477V24.1331H77.7354V5.73804H86.0085C93.4063 5.73804 94.7476 14.4628 89.9916 17.6145L93.652 23.4477ZM86.0085 16.7491C86.1929 16.7491 86.3823 16.7491 86.5205 16.7491L90.012 22.4222H90.3397L87.6212 18.0848L86.8123 16.694C91.896 15.8786 91.7373 7.75914 85.9829 7.75914H79.9675V22.3721H80.2337V16.7491H86.0085ZM86.0085 16.4589H80.2235V7.95425H86.0085C91.6093 7.97426 91.6912 16.4589 86.0085 16.4589ZM85.9778 9.95534C84.8515 9.92533 83.6689 9.95534 82.5375 9.95534V14.5078H86.0085C88.599 14.5078 88.7321 9.97035 86.0085 9.94534L85.9778 9.95534Z" fill="white"/>
        <path d="M104.541 20.0108V24.1381H94.9932V20.0108H97.3891V9.84028H95.1826V5.73804H104.352V9.84028H102.15V20.0108H104.541ZM96.7952 21.9569V22.217H102.713V21.9569H99.9182V7.94925H102.478V7.6891H97.041V7.94925H99.6468V21.9569H96.7952Z" fill="white"/>
        <path d="M114.248 18.3501L110.802 24.1332H105.616V23.4228L111.693 14.3829L106.261 6.44854V5.73815H111.263L114.248 10.5058H114.381L117.391 5.72314H122.357V6.43353L116.936 14.3829L123.038 23.4228V24.1332H117.847L114.406 18.3501H114.248ZM109.891 7.50412H109.594L114.202 14.3879L108.903 22.3923H109.282L114.335 14.7181L119.419 22.3923H119.741L114.473 14.3879L119.035 7.50412H118.738L114.325 14.0727L109.891 7.50412Z" fill="white"/>
        <path d="M57.4619 41.4677V37.2654H71.4434V41.4677H66.8358V55.6604H62.0798V41.4677H57.4619ZM64.6293 53.8995C64.6293 49.0618 64.6293 44.2792 64.5781 39.4716H69.626V39.2365H59.264V39.4716H64.3477V53.8995H64.6293Z" fill="white"/>
        <path d="M90.319 54.9751V55.6604H84.9435L81.7131 50.2475H79.2147V55.6604H74.4023V37.2654H82.6551C90.0528 37.2904 91.3941 45.9902 86.6381 49.1419L90.319 54.9751ZM82.6858 48.2764C82.8701 48.2764 83.0595 48.2464 83.2233 48.2464L86.7149 53.9245H87.0323L84.3189 49.5871L83.51 48.1964C88.5937 47.3809 88.4299 39.2615 82.6807 39.2615H76.6345V53.8995H76.9007V48.2764H82.6858ZM82.6858 47.9862H76.9007V39.5216H82.6858C88.2763 39.5216 88.3582 47.9862 82.6858 47.9862ZM82.6551 41.4827C81.5288 41.4827 80.3461 41.4827 79.2147 41.4827V46.0252H82.6551C85.266 46.0252 85.3991 41.5227 82.6551 41.4677V41.4827Z" fill="white"/>
        <path d="M104.951 53.3442H97.5275L96.4268 55.6605H91.7219V54.9751L100.185 37.0203H102.258L110.751 54.9651V55.6505H106.046L104.951 53.3442ZM101.295 39.7117H101.132L94.4353 53.8695H94.7885L96.0479 51.2681H106.456L107.695 53.8695H108.023L101.295 39.7117ZM96.1759 50.9829H106.369L101.249 40.287H101.224L96.1759 50.9829ZM103.22 49.1169H99.2989L101.234 44.8846L103.22 49.1169Z" fill="white"/>
        <path d="M120.309 55.6604H113.224V37.2654H120.309C132.596 37.3204 132.596 55.6054 120.309 55.6604ZM115.548 53.6894H120.253C129.612 53.6894 129.612 39.2365 120.253 39.2365H115.548V53.6894ZM120.268 39.5216H115.804V53.4192H120.268C129.304 53.3742 129.304 39.5516 120.268 39.5216ZM118.036 41.5677H120.309C126.304 41.5677 126.304 51.3931 120.309 51.3931H118.021L118.036 41.5677Z" fill="white"/>
        <path d="M144.924 41.4677H137.956V44.0691H144.371V48.2464H137.972V51.4782H145.18V55.6604H133.175V37.2654H144.924V41.4677ZM135.433 53.7144H143.347V53.4492H135.729V46.2803H142.559V46.0252H135.729V39.4716H143.096V39.2114H135.417L135.433 53.7144Z" fill="white"/>
        <path d="M165.193 54.9751V55.6604H159.817L156.592 50.2475H154.099V55.6604H149.286V37.2654H157.544C164.937 37.2904 166.283 45.9902 161.522 49.1419L165.193 54.9751ZM157.559 48.2764C157.749 48.2764 157.933 48.2464 158.097 48.2464L161.594 53.9245H161.916L159.218 49.5871L158.414 48.1964C163.493 47.3809 163.334 39.2615 157.58 39.2615H151.508V53.8995H151.779V48.2764H157.559ZM157.559 47.9862H151.779V39.5216H157.559C163.15 39.5216 163.232 47.9862 157.559 47.9862ZM157.534 41.4827C156.402 41.4827 155.22 41.4827 154.088 41.4827V46.0252H157.534C160.14 46.0252 160.273 41.5227 157.534 41.4677V41.4827Z" fill="white"/>
        <path d="M177.321 50.1674C177.321 48.8817 175.759 48.6665 173.875 48.5615C169.78 48.2763 167.102 46.9106 167.046 42.9134C166.887 34.9791 181.514 34.9791 181.381 42.9134H176.809C176.809 40.4721 171.756 40.6822 171.592 42.8634C171.484 44.2541 172.882 44.5443 174.577 44.7294C178.314 45.1196 181.974 45.5949 181.974 50.1924C181.974 57.9166 166.646 58.1267 166.754 50.0373H171.408C171.433 52.3736 177.321 52.3235 177.321 50.1674ZM178.857 41.2325C176.839 37.5305 169.068 38.476 169.176 42.9134C169.257 46.0701 171.515 46.5404 174.259 46.7505C176.865 46.9356 179.476 46.9856 179.476 50.1674C179.476 54.2396 171.894 55.055 169.749 51.7182H169.457C171.392 55.4753 179.783 54.6348 179.783 50.1674C179.783 46.9106 177.065 46.6655 174.321 46.4603C171.689 46.2802 169.508 45.86 169.508 42.9134C169.483 38.7911 176.502 37.9507 178.519 41.2325H178.857Z" fill="white"/>
    </g>
    <defs>
        <clipPath id="clip0_149_888">
            <rect width="182" height="64" fill="white"/>
        </clipPath>
    </defs>
</svg>
