<svg width="213" height="97" viewBox="0 0 213 97" fill="none" xmlns="http://www.w3.org/2000/svg">
    <g clip-path="url(#clip0_134_2)">
        <path d="M54.0918 50.2825C54.0428 57.1201 51.2689 63.6611 46.3752 68.4788C41.4814 73.2966 34.8649 76.0002 27.9686 76H1.03676e-05C-0.00260181 73.5884 0.488429 71.2014 1.44337 68.9834C2.39831 66.7655 3.7973 64.7628 5.55563 63.0966C7.31395 61.4304 9.39504 60.1353 11.6729 59.2898C13.9507 58.4443 16.3779 58.066 18.8075 58.1778C19.3108 58.1778 19.7182 58.2372 20.0058 58.2728V65.2888L36.8721 51.4112L20.0238 38.0208V43.9615C17.6272 43.8962 7.8849 43.9615 1.03676e-05 48.7141V0H20.9705V24.1967H27.5013C41.9769 24.1967 54.1937 35.9356 54.0918 50.2825Z" fill="url(#paint0_linear_134_2)"/>
        <path d="M83.9598 17.2995C84.7908 17.707 85.4835 18.3464 85.953 19.139C86.4224 19.9316 86.648 20.8429 86.6021 21.761C86.6021 25.569 84.2474 28.6582 79.7478 28.6582H69.4243V6.81407H78.8311C79.7266 6.80226 80.6157 6.96707 81.4464 7.29891C82.2772 7.63076 83.0332 8.12302 83.6704 8.74709C84.3076 9.37117 84.8133 10.1146 85.1582 10.9342C85.5031 11.7537 85.6803 12.6331 85.6794 13.5212C85.6688 14.2341 85.5107 14.9373 85.2149 15.5872C84.9191 16.2371 84.492 16.8199 83.9598 17.2995V17.2995ZM72.0666 9.15472V26.3472H79.6879C82.0845 26.3472 83.9958 24.1016 83.9958 21.761C84.0092 20.7421 83.635 19.7557 82.9476 18.9982C82.2603 18.2407 81.3103 17.7678 80.287 17.6738V17.549C81.8928 17.1747 83.0851 15.143 83.0851 13.5212C83.0948 12.3817 82.6511 11.2843 81.8503 10.467C81.0496 9.64962 79.9561 9.17813 78.8071 9.15472H72.0666ZM72.3782 9.43394V17.5787H78.8011C79.3316 17.5749 79.8559 17.4665 80.3437 17.2596C80.8314 17.0528 81.2727 16.7518 81.6419 16.3741C82.0111 15.9965 82.3008 15.5497 82.494 15.0599C82.6873 14.5701 82.7803 14.047 82.7675 13.5212C82.7774 12.4607 82.3675 11.4387 81.626 10.6746C80.8844 9.91041 79.8702 9.46499 78.8011 9.43394H72.3782ZM72.3782 17.8579V26.0324H79.6879C81.8568 26.0324 83.6842 23.9769 83.6842 21.761C83.6819 21.2441 83.5765 20.7327 83.3741 20.2563C83.1717 19.78 82.8763 19.348 82.5048 18.9852C82.1334 18.6225 81.6933 18.3361 81.2099 18.1427C80.7264 17.9492 80.2092 17.8524 79.6879 17.8579H72.3782ZM78.3697 11.8102C80.6345 11.8102 80.6345 15.2737 78.3697 15.2737H74.8946V11.8102H78.3697ZM79.3403 23.6917H74.8946V20.1273H79.3643C81.5992 20.1095 81.6351 23.6977 79.3643 23.6977L79.3403 23.6917Z" fill="white"/>
        <path d="M109.604 27.8442V28.6581H103.312L99.5378 22.2302H96.6079V28.6581H90.9758V6.81396H100.658C109.316 6.81396 110.886 17.1746 105.32 20.9173L109.604 27.8442ZM100.658 19.8896C100.874 19.8896 101.096 19.8896 101.257 19.8896L105.344 26.6264H105.727L102.546 21.4757L101.599 19.8242C107.548 18.8559 107.363 9.21403 100.628 9.21403H93.5882V26.567H93.8997V19.8896H100.658ZM100.658 19.545H93.8877V9.44572H100.658C107.213 9.46948 107.309 19.545 100.658 19.545ZM100.622 11.822C99.3041 11.7864 97.9201 11.822 96.5959 11.822V17.2281H100.658C103.69 17.2281 103.846 11.8398 100.658 11.8101L100.622 11.822Z" fill="white"/>
        <path d="M122.348 23.7629V28.664H111.173V23.7629H113.977V11.6854H111.395V6.81396H122.126V11.6854H119.55V23.7629H122.348ZM113.282 26.0739V26.3828H120.209V26.0739H116.937V9.43978H119.933V9.13086H113.57V9.43978H116.62V26.0739H113.282Z" fill="white"/>
        <path d="M133.708 21.7906L129.675 28.6581H123.606V27.8145L130.718 17.0796L124.361 7.65755V6.81397H130.215L133.708 12.4755H133.864L137.387 6.79614H143.198V7.63973L136.853 17.0796L143.995 27.8145V28.6581H137.92L133.893 21.7906H133.708ZM128.609 8.91105H128.261L133.654 17.0855L127.453 26.5907H127.896L133.81 17.4776L139.759 26.5907H140.137L133.971 17.0855L139.31 8.91105H138.962L133.798 16.7113L128.609 8.91105Z" fill="white"/>
        <path d="M67.2493 49.2429V44.2527H83.6122V49.2429H78.2198V66.0968H72.6537V49.2429H67.2493ZM75.6375 64.0057C75.6375 58.261 75.6375 52.5816 75.5775 46.8726H81.4852V46.5933H69.3583V46.8726H75.3079V64.0057H75.6375Z" fill="white"/>
        <path d="M105.703 65.2829V66.0968H99.4121L95.6314 59.6689H92.7075V66.0968H87.0754V44.2527H96.7338C105.392 44.2824 106.961 54.6134 101.395 58.356L105.703 65.2829ZM96.7698 57.3283C96.9855 57.3283 97.2072 57.2926 97.3989 57.2926L101.485 64.0354H101.857L98.6811 58.8848L97.7344 57.2332C103.684 56.2649 103.492 46.623 96.7638 46.623H89.6878V64.0057H89.9993V57.3283H96.7698ZM96.7698 56.9837H89.9993V46.932H96.7698C103.313 46.932 103.408 56.9837 96.7698 56.9837ZM96.7338 49.2607C95.4157 49.2607 94.0316 49.2607 92.7075 49.2607V54.6549H96.7338C99.7895 54.6549 99.9453 49.3083 96.7338 49.2429V49.2607Z" fill="white"/>
        <path d="M122.827 63.3461H114.139L112.851 66.0967H107.345V65.2828L117.249 43.9614H119.675L129.615 65.2709V66.0848H124.109L122.827 63.3461ZM118.549 47.1575H118.357L110.52 63.9699H110.934L112.408 60.8807H124.588L126.038 63.9699H126.422L118.549 47.1575ZM112.557 60.5421H124.487L118.495 47.8407H118.465L112.557 60.5421ZM120.802 58.3262H116.212L118.477 53.3003L120.802 58.3262Z" fill="white"/>
        <path d="M140.802 66.0968H132.509V44.2527H140.802C155.181 44.318 155.181 66.0315 140.802 66.0968ZM135.229 63.7562H140.736C151.688 63.7562 151.688 46.5933 140.736 46.5933H135.229V63.7562ZM140.754 46.932H135.529V63.4354H140.754C151.329 63.3819 151.329 46.9676 140.754 46.932ZM138.141 49.3617H140.802C147.818 49.3617 147.818 61.0294 140.802 61.0294H138.123L138.141 49.3617Z" fill="white"/>
        <path d="M169.609 49.2429H161.455V52.3321H168.962V57.2926H161.472V61.1304H169.909V66.0968H155.858V44.2527H169.609V49.2429ZM158.501 63.7859H167.764V63.471H158.848V54.9579H166.841V54.6549H158.848V46.8726H167.47V46.5636H158.483L158.501 63.7859Z" fill="white"/>
        <path d="M193.33 65.2829V66.0968H187.039L183.264 59.6689H180.346V66.0968H174.714V44.2527H184.378C193.03 44.2824 194.606 54.6134 189.034 58.356L193.33 65.2829ZM184.396 57.3283C184.618 57.3283 184.834 57.2926 185.025 57.2926L189.118 64.0354H189.495L186.337 58.8848L185.397 57.2332C191.34 56.2649 191.155 46.623 184.42 46.623H177.314V64.0057H177.632V57.3283H184.396ZM184.396 56.9837H177.632V46.932H184.396C190.939 46.932 191.035 56.9837 184.396 56.9837ZM184.366 49.2607C183.042 49.2607 181.658 49.2607 180.334 49.2607V54.6549H184.366C187.416 54.6549 187.572 49.3083 184.366 49.2429V49.2607Z" fill="white"/>
        <path d="M207.524 59.5739C207.524 58.0471 205.696 57.7917 203.491 57.6669C198.698 57.3283 195.565 55.7065 195.499 50.9598C195.313 41.5378 212.431 41.5378 212.275 50.9598H206.925C206.925 48.0607 201.011 48.3103 200.819 50.9004C200.693 52.552 202.329 52.8965 204.312 53.1163C208.686 53.5797 212.97 54.1441 212.97 59.6036C212.97 68.7761 195.031 69.0256 195.157 59.4195H200.603C200.633 62.1938 207.524 62.1344 207.524 59.5739ZM209.321 48.9637C206.961 44.5676 197.865 45.6904 197.991 50.9598C198.087 54.7084 200.729 55.2669 203.941 55.5164C206.99 55.7362 210.046 55.7956 210.046 59.5739C210.046 64.4097 201.173 65.378 198.662 61.4155H198.321C200.586 65.8771 210.406 64.879 210.406 59.5739C210.406 55.7065 207.224 55.4154 204.013 55.1718C200.933 54.958 198.381 54.4589 198.381 50.9598C198.351 46.0647 206.565 45.0666 208.926 48.9637H209.321Z" fill="white"/>
    </g>
    <path d="M0 97C0 91.4772 4.47715 87 10 87H203C208.523 87 213 91.4772 213 97V97H0V97Z" fill="url(#paint1_linear_134_2)"/>
    <defs>
        <linearGradient id="paint0_linear_134_2" x1="3.95444" y1="-1.81787" x2="32.804" y2="77.804" gradientUnits="userSpaceOnUse">
            <stop stop-color="#316AB8"/>
            <stop offset="1" stop-color="#77BEC2"/>
        </linearGradient>
        <linearGradient id="paint1_linear_134_2" x1="-4.5" y1="87" x2="-2.73083" y2="109.196" gradientUnits="userSpaceOnUse">
            <stop stop-color="#316AB8"/>
            <stop offset="1" stop-color="#77BEC2"/>
        </linearGradient>
        <clipPath id="clip0_134_2">
            <rect width="213" height="76" fill="white"/>
        </clipPath>
    </defs>
</svg>
