<svg width="30" height="30" viewBox="0 0 36 36" fill="none" xmlns="http://www.w3.org/2000/svg">
    <path d="M10.5 10.6979V7.61204C10.5 5.46614 10.5 4.3932 11.1896 3.79511C11.8792 3.19703 12.9414 3.34877 15.0657 3.65224L26.3485 5.26408C28.8047 5.61495 30.0327 5.79039 30.7664 6.63628C31.5 7.48217 31.5 8.72271 31.5 11.2038V24.7962C31.5 27.2773 31.5 28.5178 30.7664 29.3637C30.0327 30.2096 28.8047 30.385 26.3485 30.7359L15.0657 32.3478C12.9414 32.6512 11.8792 32.803 11.1896 32.2049C10.5 31.6068 10.5 30.5339 10.5 28.388V25.5989" stroke="white" stroke-width="2"/>
    <path d="M24 18L24.7809 17.3753L25.2806 18L24.7809 18.6247L24 18ZM6 19C5.44772 19 5 18.5523 5 18C5 17.4477 5.44772 17 6 17V19ZM18.7809 9.8753L24.7809 17.3753L23.2191 18.6247L17.2191 11.1247L18.7809 9.8753ZM24.7809 18.6247L18.7809 26.1247L17.2191 24.8753L23.2191 17.3753L24.7809 18.6247ZM24 19H6V17H24V19Z" fill="white"/>
</svg>
